<svg width="26.000000" height="26.000000" viewBox="0 0 26 26" fill="none" xmlns="http://www.w3.org/2000/svg" xmlns:xlink="http://www.w3.org/1999/xlink">
	<desc>
			Created with Pixso.
	</desc>
	<defs>
		<clipPath id="clip95_3">
			<rect id="copy" width="26.000000" height="26.000000" fill="white" fill-opacity="0"/>
		</clipPath>
	</defs>
	<rect id="copy" width="26.000000" height="26.000000" fill="#02376F" fill-opacity="0"/>
	<g clip-path="url(#clip95_3)">
		<path id="Vector" d="M13 0C5.82 0 0 5.82 0 13C0 20.17 5.82 26 13 26C20.17 26 26 20.17 26 13C26 5.82 20.17 0 13 0ZM13 23.79C7.03 23.79 2.2 18.96 2.2 13C2.2 7.03 7.03 2.2 13 2.2C18.96 2.2 23.79 7.03 23.79 13C23.79 18.96 18.96 23.79 13 23.79ZM13.16 8.33C14.7 8.33 15.74 9.31 15.86 10.75C15.86 10.87 15.97 10.97 16.09 10.97L17.73 10.97C17.81 10.97 17.87 10.91 17.87 10.83C17.87 8.31 15.89 6.55 13.15 6.55C9.96 6.55 8.12 8.71 8.12 12.26L8.12 13.78C8.12 17.31 9.96 19.44 13.15 19.44C15.88 19.44 17.87 17.73 17.87 15.33C17.87 15.26 17.81 15.2 17.73 15.2L16.09 15.2C15.96 15.2 15.86 15.29 15.85 15.41C15.73 16.75 14.69 17.67 13.15 17.67C11.26 17.67 10.19 16.28 10.19 13.79L10.19 12.26C10.19 9.74 11.27 8.33 13.16 8.33Z" fill="#02376F" fill-opacity="1.000000" fill-rule="nonzero"/>
	</g>
</svg>
