<svg width="54.033691" height="66.039185" viewBox="0 0 54.0337 66.0392" fill="none" xmlns="http://www.w3.org/2000/svg" xmlns:xlink="http://www.w3.org/1999/xlink">
	<desc>
			Created with Pixso.
	</desc>
	<defs>
		<filter id="filter_12_3_dd" x="0.000000" y="0.000000" width="39.033691" height="41.039185" filterUnits="userSpaceOnUse" color-interpolation-filters="sRGB">
			<feFlood flood-opacity="0" result="BackgroundImageFix"/>
			<feColorMatrix in="SourceAlpha" type="matrix" values="0 0 0 0 0 0 0 0 0 0 0 0 0 0 0 0 0 0 127 0" result="hardAlpha"/>
			<feOffset dx="1" dy="2"/>
			<feGaussianBlur stdDeviation="1.33333"/>
			<feComposite in2="hardAlpha" operator="out" k2="-1" k3="1"/>
			<feColorMatrix type="matrix" values="0 0 0 0 0 0 0 0 0 0 0 0 0 0 0 0 0 0 0.5 0"/>
			<feBlend mode="normal" in2="BackgroundImageFix" result="effect_dropShadow_1"/>
			<feBlend mode="normal" in="SourceGraphic" in2="effect_dropShadow_1" result="shape"/>
		</filter>
		<filter id="filter_12_5_dd" x="15.000000" y="25.000000" width="39.033691" height="41.039185" filterUnits="userSpaceOnUse" color-interpolation-filters="sRGB">
			<feFlood flood-opacity="0" result="BackgroundImageFix"/>
			<feColorMatrix in="SourceAlpha" type="matrix" values="0 0 0 0 0 0 0 0 0 0 0 0 0 0 0 0 0 0 127 0" result="hardAlpha"/>
			<feOffset dx="1" dy="2"/>
			<feGaussianBlur stdDeviation="1.33333"/>
			<feComposite in2="hardAlpha" operator="out" k2="-1" k3="1"/>
			<feColorMatrix type="matrix" values="0 0 0 0 0 0 0 0 0 0 0 0 0 0 0 0 0 0 0.5 0"/>
			<feBlend mode="normal" in2="BackgroundImageFix" result="effect_dropShadow_1"/>
			<feBlend mode="normal" in="SourceGraphic" in2="effect_dropShadow_1" result="shape"/>
		</filter>
		<linearGradient x1="18.503662" y1="2.527832" x2="18.503662" y2="34.527832" id="paint_linear_12_3_0" gradientUnits="userSpaceOnUse">
			<stop stop-color="#002247"/>
			<stop offset="1.000000" stop-color="#054D99"/>
		</linearGradient>
		<linearGradient x1="33.503662" y1="27.527832" x2="33.503662" y2="59.527832" id="paint_linear_12_5_0" gradientUnits="userSpaceOnUse">
			<stop stop-color="#002247"/>
			<stop offset="1.000000" stop-color="#02376F"/>
			<stop offset="1.000000" stop-color="#054D99"/>
		</linearGradient>
	</defs>
	<g filter="url(#filter_12_3_dd)">
		<path id="Форма 1" d="M32 3.13C34 4.58 33 7.98 30.5 8.46L25 8.46C18.2 8.46 20 7.49 19 9.92L18 13.8L17.5 16.22L24 16.7C25.5 17.19 25.6 20.58 22 22.52L15.5 22.52L12.5 32.7C11.81 33.59 8.02 34.07 6 33.67C3.6 33.2 3.5 31.25 3.5 31.25L10 7.98C8.67 9.75 8.5 3.61 11 2.64C13.71 2.64 17.06 2.83 21 2.64C26.25 2.39 31.17 2.53 32 3.13Z" fill="url(#paint_linear_12_3_0)" fill-opacity="1.000000" fill-rule="evenodd"/>
		<path id="Форма 1" d="M30.9 8.6L25.32 8.6C18.42 8.6 20.24 7.6 19.23 10.08L18.21 14.05L17.71 16.53L24.3 17.02C25.82 17.52 25.92 20.99 22.27 22.97L15.68 22.97L12.63 33.39C11.94 34.29 8.08 34.79 6.04 34.38C3.6 33.89 3.5 31.9 3.5 31.9L10.09 8.1C8.74 9.92 8.57 3.64 11.11 2.65C13.86 2.65 17.26 2.84 21.26 2.65C26.59 2.39 31.58 2.53 32.42 3.14C34.45 4.63 33.43 8.1 30.9 8.6Z" stroke="#A8A4A5" stroke-opacity="1.000000" stroke-width="1.000000"/>
	</g>
	<g filter="url(#filter_12_5_dd)">
		<path id="Форма 2" d="M47.42 28.14C49.45 29.63 48.43 33.1 45.9 33.6L40.32 33.6C33.42 33.6 35.24 32.6 34.23 35.08L33.21 39.05L32.71 41.53L39.3 42.02C40.82 42.52 40.92 45.99 37.27 47.97L30.68 47.97L27.63 58.39C26.94 59.29 23.08 59.79 21.04 59.38C18.6 58.89 18.5 56.9 18.5 56.9L25.09 33.1C23.74 34.92 23.57 28.64 26.11 27.65C28.86 27.65 32.26 27.84 36.26 27.65C41.59 27.39 46.58 27.53 47.42 28.14Z" fill="url(#paint_linear_12_5_0)" fill-opacity="1.000000" fill-rule="evenodd"/>
		<path id="Форма 2" d="M45.9 33.6L40.32 33.6C33.42 33.6 35.24 32.6 34.23 35.08L33.21 39.05L32.71 41.53L39.3 42.02C40.82 42.52 40.92 45.99 37.27 47.97L30.68 47.97L27.63 58.39C26.94 59.29 23.08 59.79 21.04 59.38C18.6 58.89 18.5 56.9 18.5 56.9L25.09 33.1C23.74 34.92 23.57 28.64 26.11 27.65C28.86 27.65 32.26 27.84 36.26 27.65C41.59 27.39 46.58 27.53 47.42 28.14C49.45 29.63 48.43 33.1 45.9 33.6Z" stroke="#A8A4A5" stroke-opacity="1.000000" stroke-width="1.000000"/>
	</g>
</svg>
